<svg xmlns="http://www.w3.org/2000/svg" viewBox="0 0 64 64" role="img" aria-label="CCVV logo">
  <rect width="64" height="64" rx="18" fill="#f5f4ed"/>
  <rect x="7" y="7" width="50" height="50" rx="14" fill="#faf9f5" stroke="#e8e6dc" stroke-width="2"/>
  <path fill="#c96442" d="M20 19h19c5.5 0 10 4.5 10 10v16H30c-5.5 0-10-4.5-10-10V19Z"/>
  <path fill="#141413" d="M15 18h15c5.5 0 10 4.5 10 10v18H25c-5.5 0-10-4.5-10-10V18Z"/>
  <path fill="#faf9f5" d="M24 28.5c0-2.5 2-4.5 4.5-4.5H34v4h-5.4c-.3 0-.6.3-.6.6v6.8c0 .3.3.6.6.6H34v4h-5.5c-2.5 0-4.5-2-4.5-4.5v-7Z"/>
  <path fill="#faf9f5" d="m36.2 40-5.8-16h4.9l3.3 10.2L42 24h4.7l-5.9 16h-4.6Z"/>
</svg>
